<svg width="500" height="500" viewBox="0 0 500 500" fill="none" xmlns="http://www.w3.org/2000/svg">
<rect width="500" height="500" fill="white"/>
<path d="M340.711 239.401C343.343 239.061 345.974 239.061 348.606 239.401C350.049 236.175 350.303 230.488 349.03 224.461C347.163 215.379 344.531 209.862 339.268 210.71C334.006 211.559 333.751 218.18 335.703 227.263C336.637 232.271 338.589 236.685 340.711 239.401ZM295.13 246.616C298.949 248.313 301.241 249.417 302.175 248.398C303.788 246.786 299.204 240.419 291.904 237.279C283.246 233.714 273.4 234.902 265.845 240.419C263.299 242.287 260.922 244.833 261.261 246.446C262.025 249.587 269.75 244.154 280.53 243.475C286.387 243.051 291.31 244.918 295.13 246.616ZM287.49 250.945C279.766 252.133 274.758 256.462 276.031 259.518C276.795 259.773 277.05 260.197 280.445 258.839C285.538 256.887 290.97 256.377 296.403 257.141C298.864 257.396 300.053 257.566 300.647 256.717C301.75 254.934 295.724 250.011 287.49 250.945ZM333.496 265.545C336.382 259.688 324.244 253.661 321.358 259.603C318.472 265.46 330.695 271.402 333.496 265.545ZM346.823 248.144C340.287 248.059 340.032 261.555 346.568 261.725C353.189 261.725 353.444 248.229 346.823 248.144ZM160.76 315.201C159.657 315.456 155.667 316.474 153.545 313.164C149.131 306.373 162.967 295.848 156.092 282.691C148.367 267.836 132.41 271.147 126.298 277.937C118.913 286.086 118.913 297.97 122.054 298.394C125.704 298.903 125.534 292.877 128.335 288.463C131.646 283.37 138.351 281.927 143.444 285.237C143.444 285.237 143.529 285.237 143.529 285.322C153.376 291.773 144.718 300.431 145.481 309.684C146.67 323.859 161.185 323.604 163.816 317.323C164.156 316.729 164.071 315.88 163.646 315.371C163.646 316.304 164.156 314.437 160.76 315.201ZM415.748 300.686C412.862 290.67 413.541 292.877 409.976 283.2C412.098 280.06 422.963 262.743 407.344 246.446C398.517 237.194 378.484 232.356 372.373 230.658C371.099 220.981 376.362 180.747 354.038 160.036C371.694 141.701 382.728 121.499 382.728 104.183C382.643 70.9088 341.73 60.8078 291.31 81.6889L280.615 86.1877C280.53 86.1028 261.261 67.2589 261.007 67.0042C203.626 16.9235 23.8447 216.652 81.3103 265.205L93.8729 275.815C90.4776 284.898 89.2892 294.659 90.3927 304.336C93.2787 332.772 121.035 355.775 147.858 355.69C197.005 468.923 375.768 469.093 422.029 358.236C423.472 354.417 429.753 337.27 429.753 322.161C429.753 307.052 421.18 300.686 415.748 300.686ZM146.84 341.684C127.402 341.175 106.436 323.689 104.398 302.978C99.1356 250.86 167.551 238.976 175.869 292.452C179.774 317.663 171.88 342.194 146.84 341.684ZM131.136 244.494C118.234 247.04 106.86 254.34 99.8995 264.441C95.7403 260.961 88.016 254.255 86.6579 251.709C75.6231 230.573 98.7961 189.575 115.009 166.487C155.073 109.276 217.801 65.9856 246.916 73.7948C251.67 75.153 267.288 93.233 267.288 93.233C267.288 93.233 238.258 109.361 211.35 131.855C174.936 159.866 147.519 200.44 131.136 244.494ZM334.345 330.565C334.345 330.565 303.957 335.063 275.182 324.538C280.445 307.392 298.185 329.716 357.179 312.824C370.166 309.089 387.227 301.789 400.554 291.264C403.44 297.885 405.477 304.845 406.58 311.891C409.721 311.296 418.719 311.466 416.342 327.254C413.541 344.146 406.326 357.897 394.272 370.544C386.718 378.693 377.72 385.484 367.789 390.407C362.272 393.293 356.415 395.755 350.473 397.707C304.976 412.561 258.375 396.264 243.266 361.122C242.078 358.406 241.059 355.69 240.21 352.804C233.844 329.631 239.277 301.874 256.253 284.389C257.272 283.285 258.375 281.927 258.375 280.314C258.206 278.871 257.696 277.513 256.763 276.41C250.821 267.752 230.194 253.067 234.354 224.631C237.324 204.175 255.15 189.829 271.872 190.678L276.116 190.933C283.331 191.357 289.612 192.291 295.554 192.546C305.485 192.97 314.483 191.527 325.008 182.699C328.573 179.728 331.459 177.097 336.298 176.333C340.287 175.314 344.446 176.078 347.842 178.2C356.33 183.888 357.518 197.554 357.943 207.57C358.197 213.257 358.876 227.178 359.131 231.082C359.64 240.165 362.017 241.438 366.855 242.966C369.572 243.9 372.118 244.494 375.768 245.597C386.972 248.738 393.593 251.963 397.922 256.038C400.129 258.16 401.487 260.961 401.997 263.932C403.355 273.608 394.527 285.577 371.099 296.357C331.374 314.777 291.395 308.665 285.623 307.986C268.476 305.694 258.715 327.848 268.986 342.958C288.254 371.393 373.137 359.934 397.753 324.793C398.347 323.944 397.837 323.435 397.158 323.944C361.593 348.22 314.568 356.454 287.83 346.098C283.755 344.485 275.267 340.581 274.248 331.923C311.342 343.382 334.685 332.517 334.685 332.517C334.685 332.517 336.552 330.31 334.345 330.565ZM205.154 166.232C219.414 149.765 236.9 135.42 252.688 127.441C252.943 127.271 253.367 127.356 253.537 127.695C253.622 127.865 253.622 128.12 253.537 128.289C252.264 130.581 249.887 135.42 249.123 139.07C249.038 139.409 249.293 139.749 249.632 139.833C249.802 139.918 249.972 139.833 250.142 139.749C259.903 133.128 276.965 125.913 291.819 125.064C292.159 125.064 292.498 125.319 292.498 125.658C292.498 125.913 292.413 126.083 292.243 126.252C289.782 128.12 287.575 130.327 285.708 132.873C285.538 133.128 285.538 133.552 285.877 133.722C285.962 133.807 286.132 133.807 286.217 133.807C296.657 133.892 311.427 137.542 321.104 142.974C321.783 143.314 321.273 144.587 320.594 144.417C261.431 130.836 215.849 160.205 206.173 167.251C205.833 167.42 205.493 167.335 205.239 167.081C204.984 166.741 204.984 166.402 205.154 166.232Z" fill="black"/>
</svg>
